<mxfile host="Electron" agent="Mozilla/5.0 (Windows NT 10.0; Win64; x64) AppleWebKit/537.36 (KHTML, like Gecko) draw.io/28.1.2 Chrome/138.0.7204.243 Electron/37.4.0 Safari/537.36" version="28.1.2" pages="10">
  <diagram name="1 create organization" id="rrZeDRam9OLzGaZPZyyN">
    <mxGraphModel dx="1042" dy="626" grid="1" gridSize="10" guides="1" tooltips="1" connect="1" arrows="1" fold="1" page="1" pageScale="1" pageWidth="827" pageHeight="1169" math="0" shadow="0">
      <root>
        <mxCell id="S_W-m5BtdDce5TFBJ5qB-0" />
        <mxCell id="S_W-m5BtdDce5TFBJ5qB-1" parent="S_W-m5BtdDce5TFBJ5qB-0" />
        <mxCell id="S_W-m5BtdDce5TFBJ5qB-2" value="" style="edgeStyle=orthogonalEdgeStyle;rounded=0;orthogonalLoop=1;jettySize=auto;html=1;" edge="1" parent="S_W-m5BtdDce5TFBJ5qB-1" source="S_W-m5BtdDce5TFBJ5qB-3" target="S_W-m5BtdDce5TFBJ5qB-6">
          <mxGeometry relative="1" as="geometry" />
        </mxCell>
        <mxCell id="S_W-m5BtdDce5TFBJ5qB-3" value="start" style="rounded=1;whiteSpace=wrap;html=1;arcSize=50;" vertex="1" parent="S_W-m5BtdDce5TFBJ5qB-1">
          <mxGeometry x="20" y="30" width="120" height="60" as="geometry" />
        </mxCell>
        <mxCell id="S_W-m5BtdDce5TFBJ5qB-4" value="end" style="rounded=1;whiteSpace=wrap;html=1;arcSize=50;" vertex="1" parent="S_W-m5BtdDce5TFBJ5qB-1">
          <mxGeometry x="20" y="170" width="120" height="60" as="geometry" />
        </mxCell>
        <mxCell id="S_W-m5BtdDce5TFBJ5qB-5" value="" style="edgeStyle=orthogonalEdgeStyle;rounded=0;orthogonalLoop=1;jettySize=auto;html=1;" edge="1" parent="S_W-m5BtdDce5TFBJ5qB-1" source="S_W-m5BtdDce5TFBJ5qB-6" target="S_W-m5BtdDce5TFBJ5qB-8">
          <mxGeometry relative="1" as="geometry" />
        </mxCell>
        <mxCell id="S_W-m5BtdDce5TFBJ5qB-6" value="press create organization button" style="whiteSpace=wrap;html=1;rounded=0;arcSize=50;" vertex="1" parent="S_W-m5BtdDce5TFBJ5qB-1">
          <mxGeometry x="220" y="30" width="120" height="60" as="geometry" />
        </mxCell>
        <mxCell id="S_W-m5BtdDce5TFBJ5qB-7" value="" style="edgeStyle=orthogonalEdgeStyle;rounded=0;orthogonalLoop=1;jettySize=auto;html=1;" edge="1" parent="S_W-m5BtdDce5TFBJ5qB-1" source="S_W-m5BtdDce5TFBJ5qB-8" target="S_W-m5BtdDce5TFBJ5qB-10">
          <mxGeometry relative="1" as="geometry" />
        </mxCell>
        <mxCell id="S_W-m5BtdDce5TFBJ5qB-8" value="input organization detail" style="whiteSpace=wrap;html=1;rounded=0;arcSize=50;" vertex="1" parent="S_W-m5BtdDce5TFBJ5qB-1">
          <mxGeometry x="420" y="30" width="120" height="60" as="geometry" />
        </mxCell>
        <mxCell id="S_W-m5BtdDce5TFBJ5qB-9" value="" style="edgeStyle=orthogonalEdgeStyle;rounded=0;orthogonalLoop=1;jettySize=auto;html=1;" edge="1" parent="S_W-m5BtdDce5TFBJ5qB-1" source="S_W-m5BtdDce5TFBJ5qB-10" target="S_W-m5BtdDce5TFBJ5qB-12">
          <mxGeometry relative="1" as="geometry" />
        </mxCell>
        <mxCell id="S_W-m5BtdDce5TFBJ5qB-10" value="check auth" style="shape=process;whiteSpace=wrap;html=1;backgroundOutline=1;" vertex="1" parent="S_W-m5BtdDce5TFBJ5qB-1">
          <mxGeometry x="620" y="30" width="120" height="60" as="geometry" />
        </mxCell>
        <mxCell id="S_W-m5BtdDce5TFBJ5qB-11" value="" style="edgeStyle=orthogonalEdgeStyle;rounded=0;orthogonalLoop=1;jettySize=auto;html=1;" edge="1" parent="S_W-m5BtdDce5TFBJ5qB-1" source="S_W-m5BtdDce5TFBJ5qB-12" target="S_W-m5BtdDce5TFBJ5qB-15">
          <mxGeometry relative="1" as="geometry" />
        </mxCell>
        <mxCell id="S_W-m5BtdDce5TFBJ5qB-12" value="use access token to create organization" style="whiteSpace=wrap;html=1;" vertex="1" parent="S_W-m5BtdDce5TFBJ5qB-1">
          <mxGeometry x="620" y="170" width="120" height="60" as="geometry" />
        </mxCell>
        <mxCell id="S_W-m5BtdDce5TFBJ5qB-13" value="yes" style="edgeStyle=orthogonalEdgeStyle;rounded=0;orthogonalLoop=1;jettySize=auto;html=1;" edge="1" parent="S_W-m5BtdDce5TFBJ5qB-1" source="S_W-m5BtdDce5TFBJ5qB-15" target="S_W-m5BtdDce5TFBJ5qB-17">
          <mxGeometry relative="1" as="geometry" />
        </mxCell>
        <mxCell id="S_W-m5BtdDce5TFBJ5qB-14" value="no" style="edgeStyle=orthogonalEdgeStyle;rounded=0;orthogonalLoop=1;jettySize=auto;html=1;" edge="1" parent="S_W-m5BtdDce5TFBJ5qB-1" source="S_W-m5BtdDce5TFBJ5qB-15" target="S_W-m5BtdDce5TFBJ5qB-20">
          <mxGeometry relative="1" as="geometry">
            <mxPoint x="480" y="310" as="targetPoint" />
          </mxGeometry>
        </mxCell>
        <mxCell id="S_W-m5BtdDce5TFBJ5qB-15" value="success" style="rhombus;whiteSpace=wrap;html=1;" vertex="1" parent="S_W-m5BtdDce5TFBJ5qB-1">
          <mxGeometry x="440" y="160" width="80" height="80" as="geometry" />
        </mxCell>
        <mxCell id="S_W-m5BtdDce5TFBJ5qB-16" style="edgeStyle=orthogonalEdgeStyle;rounded=0;orthogonalLoop=1;jettySize=auto;html=1;" edge="1" parent="S_W-m5BtdDce5TFBJ5qB-1" source="S_W-m5BtdDce5TFBJ5qB-17" target="S_W-m5BtdDce5TFBJ5qB-4">
          <mxGeometry relative="1" as="geometry" />
        </mxCell>
        <mxCell id="S_W-m5BtdDce5TFBJ5qB-17" value="show organizations" style="rounded=0;whiteSpace=wrap;html=1;" vertex="1" parent="S_W-m5BtdDce5TFBJ5qB-1">
          <mxGeometry x="220" y="170" width="120" height="60" as="geometry" />
        </mxCell>
        <mxCell id="S_W-m5BtdDce5TFBJ5qB-18" value="no" style="edgeStyle=orthogonalEdgeStyle;rounded=0;orthogonalLoop=1;jettySize=auto;html=1;" edge="1" parent="S_W-m5BtdDce5TFBJ5qB-1" source="S_W-m5BtdDce5TFBJ5qB-20" target="S_W-m5BtdDce5TFBJ5qB-24">
          <mxGeometry relative="1" as="geometry">
            <mxPoint x="320" y="350" as="targetPoint" />
          </mxGeometry>
        </mxCell>
        <mxCell id="S_W-m5BtdDce5TFBJ5qB-19" value="yes" style="edgeStyle=orthogonalEdgeStyle;rounded=0;orthogonalLoop=1;jettySize=auto;html=1;" edge="1" parent="S_W-m5BtdDce5TFBJ5qB-1" source="S_W-m5BtdDce5TFBJ5qB-20" target="S_W-m5BtdDce5TFBJ5qB-22">
          <mxGeometry relative="1" as="geometry">
            <mxPoint x="480" y="460" as="targetPoint" />
          </mxGeometry>
        </mxCell>
        <mxCell id="S_W-m5BtdDce5TFBJ5qB-20" value="&lt;font style=&quot;font-size: 10px;&quot;&gt;is unauthorize&lt;/font&gt;" style="rhombus;whiteSpace=wrap;html=1;" vertex="1" parent="S_W-m5BtdDce5TFBJ5qB-1">
          <mxGeometry x="440" y="310" width="80" height="80" as="geometry" />
        </mxCell>
        <mxCell id="S_W-m5BtdDce5TFBJ5qB-21" style="edgeStyle=orthogonalEdgeStyle;rounded=0;orthogonalLoop=1;jettySize=auto;html=1;" edge="1" parent="S_W-m5BtdDce5TFBJ5qB-1" source="S_W-m5BtdDce5TFBJ5qB-22" target="S_W-m5BtdDce5TFBJ5qB-4">
          <mxGeometry relative="1" as="geometry">
            <Array as="points">
              <mxPoint x="680" y="420" />
              <mxPoint x="80" y="420" />
            </Array>
          </mxGeometry>
        </mxCell>
        <mxCell id="S_W-m5BtdDce5TFBJ5qB-22" value="logout" style="shape=process;whiteSpace=wrap;html=1;backgroundOutline=1;" vertex="1" parent="S_W-m5BtdDce5TFBJ5qB-1">
          <mxGeometry x="620" y="320" width="120" height="60" as="geometry" />
        </mxCell>
        <mxCell id="S_W-m5BtdDce5TFBJ5qB-23" style="edgeStyle=orthogonalEdgeStyle;rounded=0;orthogonalLoop=1;jettySize=auto;html=1;" edge="1" parent="S_W-m5BtdDce5TFBJ5qB-1" source="S_W-m5BtdDce5TFBJ5qB-24" target="S_W-m5BtdDce5TFBJ5qB-4">
          <mxGeometry relative="1" as="geometry" />
        </mxCell>
        <mxCell id="S_W-m5BtdDce5TFBJ5qB-24" value="show error" style="rounded=0;whiteSpace=wrap;html=1;" vertex="1" parent="S_W-m5BtdDce5TFBJ5qB-1">
          <mxGeometry x="220" y="320" width="120" height="60" as="geometry" />
        </mxCell>
      </root>
    </mxGraphModel>
  </diagram>
  <diagram name="2 read organizations" id="h2fKBnn60QDs2FhaiwlS">
    <mxGraphModel dx="1042" dy="626" grid="1" gridSize="10" guides="1" tooltips="1" connect="1" arrows="1" fold="1" page="1" pageScale="1" pageWidth="827" pageHeight="1169" math="0" shadow="0">
      <root>
        <mxCell id="Kz-ZoB2AKDIA7hrzgHUo-0" />
        <mxCell id="Kz-ZoB2AKDIA7hrzgHUo-1" parent="Kz-ZoB2AKDIA7hrzgHUo-0" />
        <mxCell id="Kz-ZoB2AKDIA7hrzgHUo-2" value="" style="edgeStyle=orthogonalEdgeStyle;rounded=0;orthogonalLoop=1;jettySize=auto;html=1;" edge="1" parent="Kz-ZoB2AKDIA7hrzgHUo-1" source="Kz-ZoB2AKDIA7hrzgHUo-3" target="Kz-ZoB2AKDIA7hrzgHUo-6">
          <mxGeometry relative="1" as="geometry" />
        </mxCell>
        <mxCell id="Kz-ZoB2AKDIA7hrzgHUo-3" value="start" style="rounded=1;whiteSpace=wrap;html=1;arcSize=50;" vertex="1" parent="Kz-ZoB2AKDIA7hrzgHUo-1">
          <mxGeometry x="20" y="20" width="120" height="60" as="geometry" />
        </mxCell>
        <mxCell id="Kz-ZoB2AKDIA7hrzgHUo-4" value="end" style="rounded=1;whiteSpace=wrap;html=1;arcSize=50;" vertex="1" parent="Kz-ZoB2AKDIA7hrzgHUo-1">
          <mxGeometry x="20" y="160" width="120" height="60" as="geometry" />
        </mxCell>
        <mxCell id="Kz-ZoB2AKDIA7hrzgHUo-5" value="" style="edgeStyle=orthogonalEdgeStyle;rounded=0;orthogonalLoop=1;jettySize=auto;html=1;" edge="1" parent="Kz-ZoB2AKDIA7hrzgHUo-1" source="Kz-ZoB2AKDIA7hrzgHUo-6" target="Kz-ZoB2AKDIA7hrzgHUo-8">
          <mxGeometry relative="1" as="geometry" />
        </mxCell>
        <mxCell id="Kz-ZoB2AKDIA7hrzgHUo-6" value="check auth" style="shape=process;whiteSpace=wrap;html=1;backgroundOutline=1;" vertex="1" parent="Kz-ZoB2AKDIA7hrzgHUo-1">
          <mxGeometry x="200" y="20" width="120" height="60" as="geometry" />
        </mxCell>
        <mxCell id="Kz-ZoB2AKDIA7hrzgHUo-7" value="" style="edgeStyle=orthogonalEdgeStyle;rounded=0;orthogonalLoop=1;jettySize=auto;html=1;" edge="1" parent="Kz-ZoB2AKDIA7hrzgHUo-1" source="Kz-ZoB2AKDIA7hrzgHUo-8" target="Kz-ZoB2AKDIA7hrzgHUo-11">
          <mxGeometry relative="1" as="geometry" />
        </mxCell>
        <mxCell id="Kz-ZoB2AKDIA7hrzgHUo-8" value="use access token to get organizations" style="whiteSpace=wrap;html=1;" vertex="1" parent="Kz-ZoB2AKDIA7hrzgHUo-1">
          <mxGeometry x="400" y="20" width="120" height="60" as="geometry" />
        </mxCell>
        <mxCell id="Kz-ZoB2AKDIA7hrzgHUo-9" value="no" style="edgeStyle=orthogonalEdgeStyle;rounded=0;orthogonalLoop=1;jettySize=auto;html=1;" edge="1" parent="Kz-ZoB2AKDIA7hrzgHUo-1" source="Kz-ZoB2AKDIA7hrzgHUo-11" target="Kz-ZoB2AKDIA7hrzgHUo-13">
          <mxGeometry relative="1" as="geometry" />
        </mxCell>
        <mxCell id="Kz-ZoB2AKDIA7hrzgHUo-10" value="yes" style="edgeStyle=orthogonalEdgeStyle;rounded=0;orthogonalLoop=1;jettySize=auto;html=1;" edge="1" parent="Kz-ZoB2AKDIA7hrzgHUo-1" source="Kz-ZoB2AKDIA7hrzgHUo-11" target="Kz-ZoB2AKDIA7hrzgHUo-15">
          <mxGeometry relative="1" as="geometry" />
        </mxCell>
        <mxCell id="Kz-ZoB2AKDIA7hrzgHUo-11" value="is success" style="rhombus;whiteSpace=wrap;html=1;" vertex="1" parent="Kz-ZoB2AKDIA7hrzgHUo-1">
          <mxGeometry x="420" y="150" width="80" height="80" as="geometry" />
        </mxCell>
        <mxCell id="Kz-ZoB2AKDIA7hrzgHUo-12" style="edgeStyle=orthogonalEdgeStyle;rounded=0;orthogonalLoop=1;jettySize=auto;html=1;" edge="1" parent="Kz-ZoB2AKDIA7hrzgHUo-1" source="Kz-ZoB2AKDIA7hrzgHUo-13" target="Kz-ZoB2AKDIA7hrzgHUo-4">
          <mxGeometry relative="1" as="geometry">
            <Array as="points">
              <mxPoint x="620" y="260" />
              <mxPoint x="80" y="260" />
            </Array>
          </mxGeometry>
        </mxCell>
        <mxCell id="Kz-ZoB2AKDIA7hrzgHUo-13" value="show error" style="whiteSpace=wrap;html=1;" vertex="1" parent="Kz-ZoB2AKDIA7hrzgHUo-1">
          <mxGeometry x="560" y="160" width="120" height="60" as="geometry" />
        </mxCell>
        <mxCell id="Kz-ZoB2AKDIA7hrzgHUo-14" style="edgeStyle=orthogonalEdgeStyle;rounded=0;orthogonalLoop=1;jettySize=auto;html=1;" edge="1" parent="Kz-ZoB2AKDIA7hrzgHUo-1" source="Kz-ZoB2AKDIA7hrzgHUo-15" target="Kz-ZoB2AKDIA7hrzgHUo-4">
          <mxGeometry relative="1" as="geometry" />
        </mxCell>
        <mxCell id="Kz-ZoB2AKDIA7hrzgHUo-15" value="show organizations" style="whiteSpace=wrap;html=1;" vertex="1" parent="Kz-ZoB2AKDIA7hrzgHUo-1">
          <mxGeometry x="200" y="160" width="120" height="60" as="geometry" />
        </mxCell>
      </root>
    </mxGraphModel>
  </diagram>
  <diagram name="3 update organization" id="hDtKUBMvz_w7pJKy0Iw4">
    <mxGraphModel dx="1042" dy="626" grid="1" gridSize="10" guides="1" tooltips="1" connect="1" arrows="1" fold="1" page="1" pageScale="1" pageWidth="827" pageHeight="1169" math="0" shadow="0">
      <root>
        <mxCell id="250SeUNMkqGoYR_rlC9C-0" />
        <mxCell id="250SeUNMkqGoYR_rlC9C-1" parent="250SeUNMkqGoYR_rlC9C-0" />
        <mxCell id="250SeUNMkqGoYR_rlC9C-2" value="" style="edgeStyle=orthogonalEdgeStyle;rounded=0;orthogonalLoop=1;jettySize=auto;html=1;" edge="1" parent="250SeUNMkqGoYR_rlC9C-1" source="250SeUNMkqGoYR_rlC9C-3" target="250SeUNMkqGoYR_rlC9C-6">
          <mxGeometry relative="1" as="geometry" />
        </mxCell>
        <mxCell id="250SeUNMkqGoYR_rlC9C-3" value="start" style="rounded=1;whiteSpace=wrap;html=1;arcSize=50;" vertex="1" parent="250SeUNMkqGoYR_rlC9C-1">
          <mxGeometry x="20" y="30" width="120" height="60" as="geometry" />
        </mxCell>
        <mxCell id="250SeUNMkqGoYR_rlC9C-4" value="end" style="rounded=1;whiteSpace=wrap;html=1;arcSize=50;" vertex="1" parent="250SeUNMkqGoYR_rlC9C-1">
          <mxGeometry x="20" y="170" width="120" height="60" as="geometry" />
        </mxCell>
        <mxCell id="250SeUNMkqGoYR_rlC9C-5" value="" style="edgeStyle=orthogonalEdgeStyle;rounded=0;orthogonalLoop=1;jettySize=auto;html=1;" edge="1" parent="250SeUNMkqGoYR_rlC9C-1" source="250SeUNMkqGoYR_rlC9C-6" target="250SeUNMkqGoYR_rlC9C-8">
          <mxGeometry relative="1" as="geometry" />
        </mxCell>
        <mxCell id="250SeUNMkqGoYR_rlC9C-6" value="press update organization button" style="whiteSpace=wrap;html=1;rounded=0;arcSize=50;" vertex="1" parent="250SeUNMkqGoYR_rlC9C-1">
          <mxGeometry x="220" y="30" width="120" height="60" as="geometry" />
        </mxCell>
        <mxCell id="250SeUNMkqGoYR_rlC9C-7" value="" style="edgeStyle=orthogonalEdgeStyle;rounded=0;orthogonalLoop=1;jettySize=auto;html=1;" edge="1" parent="250SeUNMkqGoYR_rlC9C-1" source="250SeUNMkqGoYR_rlC9C-8" target="250SeUNMkqGoYR_rlC9C-10">
          <mxGeometry relative="1" as="geometry" />
        </mxCell>
        <mxCell id="250SeUNMkqGoYR_rlC9C-8" value="update organization detail" style="whiteSpace=wrap;html=1;rounded=0;arcSize=50;" vertex="1" parent="250SeUNMkqGoYR_rlC9C-1">
          <mxGeometry x="420" y="30" width="120" height="60" as="geometry" />
        </mxCell>
        <mxCell id="250SeUNMkqGoYR_rlC9C-9" value="" style="edgeStyle=orthogonalEdgeStyle;rounded=0;orthogonalLoop=1;jettySize=auto;html=1;" edge="1" parent="250SeUNMkqGoYR_rlC9C-1" source="250SeUNMkqGoYR_rlC9C-10" target="250SeUNMkqGoYR_rlC9C-12">
          <mxGeometry relative="1" as="geometry" />
        </mxCell>
        <mxCell id="250SeUNMkqGoYR_rlC9C-10" value="check auth" style="shape=process;whiteSpace=wrap;html=1;backgroundOutline=1;" vertex="1" parent="250SeUNMkqGoYR_rlC9C-1">
          <mxGeometry x="620" y="30" width="120" height="60" as="geometry" />
        </mxCell>
        <mxCell id="250SeUNMkqGoYR_rlC9C-11" value="" style="edgeStyle=orthogonalEdgeStyle;rounded=0;orthogonalLoop=1;jettySize=auto;html=1;" edge="1" parent="250SeUNMkqGoYR_rlC9C-1" source="250SeUNMkqGoYR_rlC9C-12" target="250SeUNMkqGoYR_rlC9C-15">
          <mxGeometry relative="1" as="geometry" />
        </mxCell>
        <mxCell id="250SeUNMkqGoYR_rlC9C-12" value="use access token to update organization" style="whiteSpace=wrap;html=1;" vertex="1" parent="250SeUNMkqGoYR_rlC9C-1">
          <mxGeometry x="620" y="170" width="120" height="60" as="geometry" />
        </mxCell>
        <mxCell id="250SeUNMkqGoYR_rlC9C-13" value="yes" style="edgeStyle=orthogonalEdgeStyle;rounded=0;orthogonalLoop=1;jettySize=auto;html=1;" edge="1" parent="250SeUNMkqGoYR_rlC9C-1" source="250SeUNMkqGoYR_rlC9C-15" target="250SeUNMkqGoYR_rlC9C-17">
          <mxGeometry relative="1" as="geometry" />
        </mxCell>
        <mxCell id="250SeUNMkqGoYR_rlC9C-14" value="no" style="edgeStyle=orthogonalEdgeStyle;rounded=0;orthogonalLoop=1;jettySize=auto;html=1;" edge="1" parent="250SeUNMkqGoYR_rlC9C-1" source="250SeUNMkqGoYR_rlC9C-15" target="250SeUNMkqGoYR_rlC9C-20">
          <mxGeometry relative="1" as="geometry">
            <mxPoint x="480" y="310" as="targetPoint" />
          </mxGeometry>
        </mxCell>
        <mxCell id="250SeUNMkqGoYR_rlC9C-15" value="success" style="rhombus;whiteSpace=wrap;html=1;" vertex="1" parent="250SeUNMkqGoYR_rlC9C-1">
          <mxGeometry x="440" y="160" width="80" height="80" as="geometry" />
        </mxCell>
        <mxCell id="250SeUNMkqGoYR_rlC9C-16" style="edgeStyle=orthogonalEdgeStyle;rounded=0;orthogonalLoop=1;jettySize=auto;html=1;" edge="1" parent="250SeUNMkqGoYR_rlC9C-1" source="250SeUNMkqGoYR_rlC9C-17" target="250SeUNMkqGoYR_rlC9C-4">
          <mxGeometry relative="1" as="geometry" />
        </mxCell>
        <mxCell id="250SeUNMkqGoYR_rlC9C-17" value="show organizations" style="rounded=0;whiteSpace=wrap;html=1;" vertex="1" parent="250SeUNMkqGoYR_rlC9C-1">
          <mxGeometry x="220" y="170" width="120" height="60" as="geometry" />
        </mxCell>
        <mxCell id="250SeUNMkqGoYR_rlC9C-18" value="no" style="edgeStyle=orthogonalEdgeStyle;rounded=0;orthogonalLoop=1;jettySize=auto;html=1;" edge="1" parent="250SeUNMkqGoYR_rlC9C-1" source="250SeUNMkqGoYR_rlC9C-20" target="250SeUNMkqGoYR_rlC9C-24">
          <mxGeometry relative="1" as="geometry">
            <mxPoint x="320" y="350" as="targetPoint" />
          </mxGeometry>
        </mxCell>
        <mxCell id="250SeUNMkqGoYR_rlC9C-19" value="yes" style="edgeStyle=orthogonalEdgeStyle;rounded=0;orthogonalLoop=1;jettySize=auto;html=1;" edge="1" parent="250SeUNMkqGoYR_rlC9C-1" source="250SeUNMkqGoYR_rlC9C-20" target="250SeUNMkqGoYR_rlC9C-22">
          <mxGeometry relative="1" as="geometry">
            <mxPoint x="480" y="460" as="targetPoint" />
          </mxGeometry>
        </mxCell>
        <mxCell id="250SeUNMkqGoYR_rlC9C-20" value="&lt;font style=&quot;font-size: 10px;&quot;&gt;is unauthorize&lt;/font&gt;" style="rhombus;whiteSpace=wrap;html=1;" vertex="1" parent="250SeUNMkqGoYR_rlC9C-1">
          <mxGeometry x="440" y="310" width="80" height="80" as="geometry" />
        </mxCell>
        <mxCell id="250SeUNMkqGoYR_rlC9C-21" style="edgeStyle=orthogonalEdgeStyle;rounded=0;orthogonalLoop=1;jettySize=auto;html=1;" edge="1" parent="250SeUNMkqGoYR_rlC9C-1" source="250SeUNMkqGoYR_rlC9C-22" target="250SeUNMkqGoYR_rlC9C-4">
          <mxGeometry relative="1" as="geometry">
            <Array as="points">
              <mxPoint x="680" y="420" />
              <mxPoint x="80" y="420" />
            </Array>
          </mxGeometry>
        </mxCell>
        <mxCell id="250SeUNMkqGoYR_rlC9C-22" value="logout" style="shape=process;whiteSpace=wrap;html=1;backgroundOutline=1;" vertex="1" parent="250SeUNMkqGoYR_rlC9C-1">
          <mxGeometry x="620" y="320" width="120" height="60" as="geometry" />
        </mxCell>
        <mxCell id="250SeUNMkqGoYR_rlC9C-23" style="edgeStyle=orthogonalEdgeStyle;rounded=0;orthogonalLoop=1;jettySize=auto;html=1;" edge="1" parent="250SeUNMkqGoYR_rlC9C-1" source="250SeUNMkqGoYR_rlC9C-24" target="250SeUNMkqGoYR_rlC9C-4">
          <mxGeometry relative="1" as="geometry" />
        </mxCell>
        <mxCell id="250SeUNMkqGoYR_rlC9C-24" value="show error" style="rounded=0;whiteSpace=wrap;html=1;" vertex="1" parent="250SeUNMkqGoYR_rlC9C-1">
          <mxGeometry x="220" y="320" width="120" height="60" as="geometry" />
        </mxCell>
      </root>
    </mxGraphModel>
  </diagram>
  <diagram name="4 delete organization" id="ovYd9jxgdTEPF77yXdWQ">
    <mxGraphModel dx="1042" dy="626" grid="1" gridSize="10" guides="1" tooltips="1" connect="1" arrows="1" fold="1" page="1" pageScale="1" pageWidth="827" pageHeight="1169" math="0" shadow="0">
      <root>
        <mxCell id="RocfzzQe3fpY7x5n20qb-0" />
        <mxCell id="RocfzzQe3fpY7x5n20qb-1" parent="RocfzzQe3fpY7x5n20qb-0" />
        <mxCell id="RocfzzQe3fpY7x5n20qb-2" value="" style="edgeStyle=orthogonalEdgeStyle;rounded=0;orthogonalLoop=1;jettySize=auto;html=1;" edge="1" parent="RocfzzQe3fpY7x5n20qb-1" source="RocfzzQe3fpY7x5n20qb-3" target="RocfzzQe3fpY7x5n20qb-6">
          <mxGeometry relative="1" as="geometry" />
        </mxCell>
        <mxCell id="RocfzzQe3fpY7x5n20qb-3" value="start" style="rounded=1;whiteSpace=wrap;html=1;arcSize=50;" vertex="1" parent="RocfzzQe3fpY7x5n20qb-1">
          <mxGeometry x="20" y="30" width="120" height="60" as="geometry" />
        </mxCell>
        <mxCell id="RocfzzQe3fpY7x5n20qb-4" value="end" style="rounded=1;whiteSpace=wrap;html=1;arcSize=50;" vertex="1" parent="RocfzzQe3fpY7x5n20qb-1">
          <mxGeometry x="20" y="170" width="120" height="60" as="geometry" />
        </mxCell>
        <mxCell id="RocfzzQe3fpY7x5n20qb-5" value="" style="edgeStyle=orthogonalEdgeStyle;rounded=0;orthogonalLoop=1;jettySize=auto;html=1;" edge="1" parent="RocfzzQe3fpY7x5n20qb-1" source="RocfzzQe3fpY7x5n20qb-6" target="RocfzzQe3fpY7x5n20qb-8">
          <mxGeometry relative="1" as="geometry" />
        </mxCell>
        <mxCell id="RocfzzQe3fpY7x5n20qb-6" value="press update organization button" style="whiteSpace=wrap;html=1;rounded=0;arcSize=50;" vertex="1" parent="RocfzzQe3fpY7x5n20qb-1">
          <mxGeometry x="220" y="30" width="120" height="60" as="geometry" />
        </mxCell>
        <mxCell id="RocfzzQe3fpY7x5n20qb-7" value="" style="edgeStyle=orthogonalEdgeStyle;rounded=0;orthogonalLoop=1;jettySize=auto;html=1;" edge="1" parent="RocfzzQe3fpY7x5n20qb-1" source="RocfzzQe3fpY7x5n20qb-8" target="RocfzzQe3fpY7x5n20qb-10">
          <mxGeometry relative="1" as="geometry" />
        </mxCell>
        <mxCell id="RocfzzQe3fpY7x5n20qb-8" value="press delete organization button" style="whiteSpace=wrap;html=1;rounded=0;arcSize=50;" vertex="1" parent="RocfzzQe3fpY7x5n20qb-1">
          <mxGeometry x="420" y="30" width="120" height="60" as="geometry" />
        </mxCell>
        <mxCell id="RocfzzQe3fpY7x5n20qb-9" value="" style="edgeStyle=orthogonalEdgeStyle;rounded=0;orthogonalLoop=1;jettySize=auto;html=1;" edge="1" parent="RocfzzQe3fpY7x5n20qb-1" source="RocfzzQe3fpY7x5n20qb-10" target="RocfzzQe3fpY7x5n20qb-12">
          <mxGeometry relative="1" as="geometry" />
        </mxCell>
        <mxCell id="RocfzzQe3fpY7x5n20qb-10" value="check auth" style="shape=process;whiteSpace=wrap;html=1;backgroundOutline=1;" vertex="1" parent="RocfzzQe3fpY7x5n20qb-1">
          <mxGeometry x="620" y="30" width="120" height="60" as="geometry" />
        </mxCell>
        <mxCell id="RocfzzQe3fpY7x5n20qb-11" value="" style="edgeStyle=orthogonalEdgeStyle;rounded=0;orthogonalLoop=1;jettySize=auto;html=1;" edge="1" parent="RocfzzQe3fpY7x5n20qb-1" source="RocfzzQe3fpY7x5n20qb-12" target="RocfzzQe3fpY7x5n20qb-15">
          <mxGeometry relative="1" as="geometry" />
        </mxCell>
        <mxCell id="RocfzzQe3fpY7x5n20qb-12" value="use access token to delete organization" style="whiteSpace=wrap;html=1;" vertex="1" parent="RocfzzQe3fpY7x5n20qb-1">
          <mxGeometry x="620" y="170" width="120" height="60" as="geometry" />
        </mxCell>
        <mxCell id="RocfzzQe3fpY7x5n20qb-13" value="yes" style="edgeStyle=orthogonalEdgeStyle;rounded=0;orthogonalLoop=1;jettySize=auto;html=1;" edge="1" parent="RocfzzQe3fpY7x5n20qb-1" source="RocfzzQe3fpY7x5n20qb-15" target="RocfzzQe3fpY7x5n20qb-17">
          <mxGeometry relative="1" as="geometry" />
        </mxCell>
        <mxCell id="RocfzzQe3fpY7x5n20qb-14" value="no" style="edgeStyle=orthogonalEdgeStyle;rounded=0;orthogonalLoop=1;jettySize=auto;html=1;" edge="1" parent="RocfzzQe3fpY7x5n20qb-1" source="RocfzzQe3fpY7x5n20qb-15" target="RocfzzQe3fpY7x5n20qb-20">
          <mxGeometry relative="1" as="geometry">
            <mxPoint x="480" y="310" as="targetPoint" />
          </mxGeometry>
        </mxCell>
        <mxCell id="RocfzzQe3fpY7x5n20qb-15" value="success" style="rhombus;whiteSpace=wrap;html=1;" vertex="1" parent="RocfzzQe3fpY7x5n20qb-1">
          <mxGeometry x="440" y="160" width="80" height="80" as="geometry" />
        </mxCell>
        <mxCell id="RocfzzQe3fpY7x5n20qb-16" style="edgeStyle=orthogonalEdgeStyle;rounded=0;orthogonalLoop=1;jettySize=auto;html=1;" edge="1" parent="RocfzzQe3fpY7x5n20qb-1" source="RocfzzQe3fpY7x5n20qb-17" target="RocfzzQe3fpY7x5n20qb-4">
          <mxGeometry relative="1" as="geometry" />
        </mxCell>
        <mxCell id="RocfzzQe3fpY7x5n20qb-17" value="show organizations" style="rounded=0;whiteSpace=wrap;html=1;" vertex="1" parent="RocfzzQe3fpY7x5n20qb-1">
          <mxGeometry x="220" y="170" width="120" height="60" as="geometry" />
        </mxCell>
        <mxCell id="RocfzzQe3fpY7x5n20qb-18" value="no" style="edgeStyle=orthogonalEdgeStyle;rounded=0;orthogonalLoop=1;jettySize=auto;html=1;" edge="1" parent="RocfzzQe3fpY7x5n20qb-1" source="RocfzzQe3fpY7x5n20qb-20" target="RocfzzQe3fpY7x5n20qb-24">
          <mxGeometry relative="1" as="geometry">
            <mxPoint x="320" y="350" as="targetPoint" />
          </mxGeometry>
        </mxCell>
        <mxCell id="RocfzzQe3fpY7x5n20qb-19" value="yes" style="edgeStyle=orthogonalEdgeStyle;rounded=0;orthogonalLoop=1;jettySize=auto;html=1;" edge="1" parent="RocfzzQe3fpY7x5n20qb-1" source="RocfzzQe3fpY7x5n20qb-20" target="RocfzzQe3fpY7x5n20qb-22">
          <mxGeometry relative="1" as="geometry">
            <mxPoint x="480" y="460" as="targetPoint" />
          </mxGeometry>
        </mxCell>
        <mxCell id="RocfzzQe3fpY7x5n20qb-20" value="&lt;font style=&quot;font-size: 10px;&quot;&gt;is unauthorize&lt;/font&gt;" style="rhombus;whiteSpace=wrap;html=1;" vertex="1" parent="RocfzzQe3fpY7x5n20qb-1">
          <mxGeometry x="440" y="310" width="80" height="80" as="geometry" />
        </mxCell>
        <mxCell id="RocfzzQe3fpY7x5n20qb-21" style="edgeStyle=orthogonalEdgeStyle;rounded=0;orthogonalLoop=1;jettySize=auto;html=1;" edge="1" parent="RocfzzQe3fpY7x5n20qb-1" source="RocfzzQe3fpY7x5n20qb-22" target="RocfzzQe3fpY7x5n20qb-4">
          <mxGeometry relative="1" as="geometry">
            <Array as="points">
              <mxPoint x="680" y="420" />
              <mxPoint x="80" y="420" />
            </Array>
          </mxGeometry>
        </mxCell>
        <mxCell id="RocfzzQe3fpY7x5n20qb-22" value="logout" style="shape=process;whiteSpace=wrap;html=1;backgroundOutline=1;" vertex="1" parent="RocfzzQe3fpY7x5n20qb-1">
          <mxGeometry x="620" y="320" width="120" height="60" as="geometry" />
        </mxCell>
        <mxCell id="RocfzzQe3fpY7x5n20qb-23" style="edgeStyle=orthogonalEdgeStyle;rounded=0;orthogonalLoop=1;jettySize=auto;html=1;" edge="1" parent="RocfzzQe3fpY7x5n20qb-1" source="RocfzzQe3fpY7x5n20qb-24" target="RocfzzQe3fpY7x5n20qb-4">
          <mxGeometry relative="1" as="geometry" />
        </mxCell>
        <mxCell id="RocfzzQe3fpY7x5n20qb-24" value="show error" style="rounded=0;whiteSpace=wrap;html=1;" vertex="1" parent="RocfzzQe3fpY7x5n20qb-1">
          <mxGeometry x="220" y="320" width="120" height="60" as="geometry" />
        </mxCell>
      </root>
    </mxGraphModel>
  </diagram>
  <diagram name="5 read organization logs" id="GnffTUM4pT6UMGDfcyzO">
    <mxGraphModel dx="1042" dy="626" grid="1" gridSize="10" guides="1" tooltips="1" connect="1" arrows="1" fold="1" page="1" pageScale="1" pageWidth="827" pageHeight="1169" math="0" shadow="0">
      <root>
        <mxCell id="5ixxctAlzofLMIDu9Lka-0" />
        <mxCell id="5ixxctAlzofLMIDu9Lka-1" parent="5ixxctAlzofLMIDu9Lka-0" />
        <mxCell id="5ixxctAlzofLMIDu9Lka-2" value="" style="edgeStyle=orthogonalEdgeStyle;rounded=0;orthogonalLoop=1;jettySize=auto;html=1;" edge="1" parent="5ixxctAlzofLMIDu9Lka-1" source="5ixxctAlzofLMIDu9Lka-3" target="5ixxctAlzofLMIDu9Lka-6">
          <mxGeometry relative="1" as="geometry" />
        </mxCell>
        <mxCell id="5ixxctAlzofLMIDu9Lka-3" value="start" style="rounded=1;whiteSpace=wrap;html=1;arcSize=50;" vertex="1" parent="5ixxctAlzofLMIDu9Lka-1">
          <mxGeometry x="20" y="20" width="120" height="60" as="geometry" />
        </mxCell>
        <mxCell id="5ixxctAlzofLMIDu9Lka-4" value="end" style="rounded=1;whiteSpace=wrap;html=1;arcSize=50;" vertex="1" parent="5ixxctAlzofLMIDu9Lka-1">
          <mxGeometry x="20" y="160" width="120" height="60" as="geometry" />
        </mxCell>
        <mxCell id="5ixxctAlzofLMIDu9Lka-5" value="" style="edgeStyle=orthogonalEdgeStyle;rounded=0;orthogonalLoop=1;jettySize=auto;html=1;" edge="1" parent="5ixxctAlzofLMIDu9Lka-1" source="5ixxctAlzofLMIDu9Lka-6" target="5ixxctAlzofLMIDu9Lka-8">
          <mxGeometry relative="1" as="geometry" />
        </mxCell>
        <mxCell id="5ixxctAlzofLMIDu9Lka-6" value="check auth" style="shape=process;whiteSpace=wrap;html=1;backgroundOutline=1;" vertex="1" parent="5ixxctAlzofLMIDu9Lka-1">
          <mxGeometry x="200" y="20" width="120" height="60" as="geometry" />
        </mxCell>
        <mxCell id="5ixxctAlzofLMIDu9Lka-7" value="" style="edgeStyle=orthogonalEdgeStyle;rounded=0;orthogonalLoop=1;jettySize=auto;html=1;" edge="1" parent="5ixxctAlzofLMIDu9Lka-1" source="5ixxctAlzofLMIDu9Lka-8" target="5ixxctAlzofLMIDu9Lka-11">
          <mxGeometry relative="1" as="geometry" />
        </mxCell>
        <mxCell id="5ixxctAlzofLMIDu9Lka-8" value="use access token to get organization logs" style="whiteSpace=wrap;html=1;" vertex="1" parent="5ixxctAlzofLMIDu9Lka-1">
          <mxGeometry x="400" y="20" width="120" height="60" as="geometry" />
        </mxCell>
        <mxCell id="5ixxctAlzofLMIDu9Lka-9" value="no" style="edgeStyle=orthogonalEdgeStyle;rounded=0;orthogonalLoop=1;jettySize=auto;html=1;" edge="1" parent="5ixxctAlzofLMIDu9Lka-1" source="5ixxctAlzofLMIDu9Lka-11" target="5ixxctAlzofLMIDu9Lka-13">
          <mxGeometry relative="1" as="geometry" />
        </mxCell>
        <mxCell id="5ixxctAlzofLMIDu9Lka-10" value="yes" style="edgeStyle=orthogonalEdgeStyle;rounded=0;orthogonalLoop=1;jettySize=auto;html=1;" edge="1" parent="5ixxctAlzofLMIDu9Lka-1" source="5ixxctAlzofLMIDu9Lka-11" target="5ixxctAlzofLMIDu9Lka-15">
          <mxGeometry relative="1" as="geometry" />
        </mxCell>
        <mxCell id="5ixxctAlzofLMIDu9Lka-11" value="is success" style="rhombus;whiteSpace=wrap;html=1;" vertex="1" parent="5ixxctAlzofLMIDu9Lka-1">
          <mxGeometry x="420" y="150" width="80" height="80" as="geometry" />
        </mxCell>
        <mxCell id="5ixxctAlzofLMIDu9Lka-12" style="edgeStyle=orthogonalEdgeStyle;rounded=0;orthogonalLoop=1;jettySize=auto;html=1;" edge="1" parent="5ixxctAlzofLMIDu9Lka-1" source="5ixxctAlzofLMIDu9Lka-13" target="5ixxctAlzofLMIDu9Lka-4">
          <mxGeometry relative="1" as="geometry">
            <Array as="points">
              <mxPoint x="620" y="260" />
              <mxPoint x="80" y="260" />
            </Array>
          </mxGeometry>
        </mxCell>
        <mxCell id="5ixxctAlzofLMIDu9Lka-13" value="show error" style="whiteSpace=wrap;html=1;" vertex="1" parent="5ixxctAlzofLMIDu9Lka-1">
          <mxGeometry x="560" y="160" width="120" height="60" as="geometry" />
        </mxCell>
        <mxCell id="5ixxctAlzofLMIDu9Lka-14" style="edgeStyle=orthogonalEdgeStyle;rounded=0;orthogonalLoop=1;jettySize=auto;html=1;" edge="1" parent="5ixxctAlzofLMIDu9Lka-1" source="5ixxctAlzofLMIDu9Lka-15" target="5ixxctAlzofLMIDu9Lka-4">
          <mxGeometry relative="1" as="geometry" />
        </mxCell>
        <mxCell id="5ixxctAlzofLMIDu9Lka-15" value="show organization logs" style="whiteSpace=wrap;html=1;" vertex="1" parent="5ixxctAlzofLMIDu9Lka-1">
          <mxGeometry x="200" y="160" width="120" height="60" as="geometry" />
        </mxCell>
      </root>
    </mxGraphModel>
  </diagram>
  <diagram name="6 read communication event logs" id="pnv5aXgD-wiAaMwx8BN9">
    <mxGraphModel dx="1042" dy="626" grid="1" gridSize="10" guides="1" tooltips="1" connect="1" arrows="1" fold="1" page="1" pageScale="1" pageWidth="827" pageHeight="1169" math="0" shadow="0">
      <root>
        <mxCell id="5VV1nUNWMGlHf6z3_R0x-0" />
        <mxCell id="5VV1nUNWMGlHf6z3_R0x-1" parent="5VV1nUNWMGlHf6z3_R0x-0" />
        <mxCell id="5VV1nUNWMGlHf6z3_R0x-2" value="" style="edgeStyle=orthogonalEdgeStyle;rounded=0;orthogonalLoop=1;jettySize=auto;html=1;" parent="5VV1nUNWMGlHf6z3_R0x-1" source="5VV1nUNWMGlHf6z3_R0x-3" target="5VV1nUNWMGlHf6z3_R0x-6" edge="1">
          <mxGeometry relative="1" as="geometry" />
        </mxCell>
        <mxCell id="5VV1nUNWMGlHf6z3_R0x-3" value="start" style="rounded=1;whiteSpace=wrap;html=1;arcSize=50;" parent="5VV1nUNWMGlHf6z3_R0x-1" vertex="1">
          <mxGeometry x="20" y="20" width="120" height="60" as="geometry" />
        </mxCell>
        <mxCell id="5VV1nUNWMGlHf6z3_R0x-4" value="end" style="rounded=1;whiteSpace=wrap;html=1;arcSize=50;" parent="5VV1nUNWMGlHf6z3_R0x-1" vertex="1">
          <mxGeometry x="20" y="160" width="120" height="60" as="geometry" />
        </mxCell>
        <mxCell id="5VV1nUNWMGlHf6z3_R0x-5" value="" style="edgeStyle=orthogonalEdgeStyle;rounded=0;orthogonalLoop=1;jettySize=auto;html=1;" parent="5VV1nUNWMGlHf6z3_R0x-1" source="5VV1nUNWMGlHf6z3_R0x-6" target="5VV1nUNWMGlHf6z3_R0x-8" edge="1">
          <mxGeometry relative="1" as="geometry" />
        </mxCell>
        <mxCell id="5VV1nUNWMGlHf6z3_R0x-6" value="check auth" style="shape=process;whiteSpace=wrap;html=1;backgroundOutline=1;" parent="5VV1nUNWMGlHf6z3_R0x-1" vertex="1">
          <mxGeometry x="200" y="20" width="120" height="60" as="geometry" />
        </mxCell>
        <mxCell id="5VV1nUNWMGlHf6z3_R0x-7" value="" style="edgeStyle=orthogonalEdgeStyle;rounded=0;orthogonalLoop=1;jettySize=auto;html=1;" parent="5VV1nUNWMGlHf6z3_R0x-1" source="5VV1nUNWMGlHf6z3_R0x-8" target="5VV1nUNWMGlHf6z3_R0x-11" edge="1">
          <mxGeometry relative="1" as="geometry" />
        </mxCell>
        <mxCell id="5VV1nUNWMGlHf6z3_R0x-8" value="use access token to get communication event logs" style="whiteSpace=wrap;html=1;" parent="5VV1nUNWMGlHf6z3_R0x-1" vertex="1">
          <mxGeometry x="400" y="20" width="120" height="60" as="geometry" />
        </mxCell>
        <mxCell id="5VV1nUNWMGlHf6z3_R0x-9" value="no" style="edgeStyle=orthogonalEdgeStyle;rounded=0;orthogonalLoop=1;jettySize=auto;html=1;" parent="5VV1nUNWMGlHf6z3_R0x-1" source="5VV1nUNWMGlHf6z3_R0x-11" target="5VV1nUNWMGlHf6z3_R0x-13" edge="1">
          <mxGeometry relative="1" as="geometry" />
        </mxCell>
        <mxCell id="5VV1nUNWMGlHf6z3_R0x-10" value="yes" style="edgeStyle=orthogonalEdgeStyle;rounded=0;orthogonalLoop=1;jettySize=auto;html=1;" parent="5VV1nUNWMGlHf6z3_R0x-1" source="5VV1nUNWMGlHf6z3_R0x-11" target="5VV1nUNWMGlHf6z3_R0x-15" edge="1">
          <mxGeometry relative="1" as="geometry" />
        </mxCell>
        <mxCell id="5VV1nUNWMGlHf6z3_R0x-11" value="is success" style="rhombus;whiteSpace=wrap;html=1;" parent="5VV1nUNWMGlHf6z3_R0x-1" vertex="1">
          <mxGeometry x="420" y="150" width="80" height="80" as="geometry" />
        </mxCell>
        <mxCell id="5VV1nUNWMGlHf6z3_R0x-12" style="edgeStyle=orthogonalEdgeStyle;rounded=0;orthogonalLoop=1;jettySize=auto;html=1;" parent="5VV1nUNWMGlHf6z3_R0x-1" source="5VV1nUNWMGlHf6z3_R0x-13" target="5VV1nUNWMGlHf6z3_R0x-4" edge="1">
          <mxGeometry relative="1" as="geometry">
            <Array as="points">
              <mxPoint x="620" y="260" />
              <mxPoint x="80" y="260" />
            </Array>
          </mxGeometry>
        </mxCell>
        <mxCell id="5VV1nUNWMGlHf6z3_R0x-13" value="show error" style="whiteSpace=wrap;html=1;" parent="5VV1nUNWMGlHf6z3_R0x-1" vertex="1">
          <mxGeometry x="560" y="160" width="120" height="60" as="geometry" />
        </mxCell>
        <mxCell id="5VV1nUNWMGlHf6z3_R0x-14" style="edgeStyle=orthogonalEdgeStyle;rounded=0;orthogonalLoop=1;jettySize=auto;html=1;" parent="5VV1nUNWMGlHf6z3_R0x-1" source="5VV1nUNWMGlHf6z3_R0x-15" target="5VV1nUNWMGlHf6z3_R0x-4" edge="1">
          <mxGeometry relative="1" as="geometry" />
        </mxCell>
        <mxCell id="5VV1nUNWMGlHf6z3_R0x-15" value="show communication event logs" style="whiteSpace=wrap;html=1;" parent="5VV1nUNWMGlHf6z3_R0x-1" vertex="1">
          <mxGeometry x="200" y="160" width="120" height="60" as="geometry" />
        </mxCell>
      </root>
    </mxGraphModel>
  </diagram>
  <diagram name="create mold" id="1QbWZeA6MTVED_bgXNjE">
    <mxGraphModel dx="1042" dy="626" grid="1" gridSize="10" guides="1" tooltips="1" connect="1" arrows="1" fold="1" page="1" pageScale="1" pageWidth="827" pageHeight="1169" math="0" shadow="0">
      <root>
        <mxCell id="XhHmiUflHOxw2_ojajZN-0" />
        <mxCell id="XhHmiUflHOxw2_ojajZN-1" parent="XhHmiUflHOxw2_ojajZN-0" />
        <mxCell id="XhHmiUflHOxw2_ojajZN-2" value="" style="edgeStyle=orthogonalEdgeStyle;rounded=0;orthogonalLoop=1;jettySize=auto;html=1;" parent="XhHmiUflHOxw2_ojajZN-1" source="XhHmiUflHOxw2_ojajZN-3" target="XhHmiUflHOxw2_ojajZN-6" edge="1">
          <mxGeometry relative="1" as="geometry" />
        </mxCell>
        <mxCell id="XhHmiUflHOxw2_ojajZN-3" value="start" style="rounded=1;whiteSpace=wrap;html=1;arcSize=50;" parent="XhHmiUflHOxw2_ojajZN-1" vertex="1">
          <mxGeometry x="20" y="30" width="120" height="60" as="geometry" />
        </mxCell>
        <mxCell id="XhHmiUflHOxw2_ojajZN-4" value="end" style="rounded=1;whiteSpace=wrap;html=1;arcSize=50;" parent="XhHmiUflHOxw2_ojajZN-1" vertex="1">
          <mxGeometry x="20" y="170" width="120" height="60" as="geometry" />
        </mxCell>
        <mxCell id="XhHmiUflHOxw2_ojajZN-5" value="" style="edgeStyle=orthogonalEdgeStyle;rounded=0;orthogonalLoop=1;jettySize=auto;html=1;" parent="XhHmiUflHOxw2_ojajZN-1" source="XhHmiUflHOxw2_ojajZN-6" target="XhHmiUflHOxw2_ojajZN-8" edge="1">
          <mxGeometry relative="1" as="geometry" />
        </mxCell>
        <mxCell id="XhHmiUflHOxw2_ojajZN-6" value="press create mold button" style="whiteSpace=wrap;html=1;rounded=0;arcSize=50;" parent="XhHmiUflHOxw2_ojajZN-1" vertex="1">
          <mxGeometry x="220" y="30" width="120" height="60" as="geometry" />
        </mxCell>
        <mxCell id="XhHmiUflHOxw2_ojajZN-7" value="" style="edgeStyle=orthogonalEdgeStyle;rounded=0;orthogonalLoop=1;jettySize=auto;html=1;" parent="XhHmiUflHOxw2_ojajZN-1" source="XhHmiUflHOxw2_ojajZN-8" target="XhHmiUflHOxw2_ojajZN-10" edge="1">
          <mxGeometry relative="1" as="geometry" />
        </mxCell>
        <mxCell id="XhHmiUflHOxw2_ojajZN-8" value="input mold detail" style="whiteSpace=wrap;html=1;rounded=0;arcSize=50;" parent="XhHmiUflHOxw2_ojajZN-1" vertex="1">
          <mxGeometry x="420" y="30" width="120" height="60" as="geometry" />
        </mxCell>
        <mxCell id="XhHmiUflHOxw2_ojajZN-9" value="" style="edgeStyle=orthogonalEdgeStyle;rounded=0;orthogonalLoop=1;jettySize=auto;html=1;" parent="XhHmiUflHOxw2_ojajZN-1" source="XhHmiUflHOxw2_ojajZN-10" target="XhHmiUflHOxw2_ojajZN-12" edge="1">
          <mxGeometry relative="1" as="geometry" />
        </mxCell>
        <mxCell id="XhHmiUflHOxw2_ojajZN-10" value="check auth" style="shape=process;whiteSpace=wrap;html=1;backgroundOutline=1;" parent="XhHmiUflHOxw2_ojajZN-1" vertex="1">
          <mxGeometry x="620" y="30" width="120" height="60" as="geometry" />
        </mxCell>
        <mxCell id="XhHmiUflHOxw2_ojajZN-11" value="" style="edgeStyle=orthogonalEdgeStyle;rounded=0;orthogonalLoop=1;jettySize=auto;html=1;" parent="XhHmiUflHOxw2_ojajZN-1" source="XhHmiUflHOxw2_ojajZN-12" target="XhHmiUflHOxw2_ojajZN-15" edge="1">
          <mxGeometry relative="1" as="geometry" />
        </mxCell>
        <mxCell id="XhHmiUflHOxw2_ojajZN-12" value="use access token to create mold" style="whiteSpace=wrap;html=1;" parent="XhHmiUflHOxw2_ojajZN-1" vertex="1">
          <mxGeometry x="620" y="170" width="120" height="60" as="geometry" />
        </mxCell>
        <mxCell id="XhHmiUflHOxw2_ojajZN-13" value="yes" style="edgeStyle=orthogonalEdgeStyle;rounded=0;orthogonalLoop=1;jettySize=auto;html=1;" parent="XhHmiUflHOxw2_ojajZN-1" source="XhHmiUflHOxw2_ojajZN-15" target="XhHmiUflHOxw2_ojajZN-17" edge="1">
          <mxGeometry relative="1" as="geometry" />
        </mxCell>
        <mxCell id="XhHmiUflHOxw2_ojajZN-14" value="no" style="edgeStyle=orthogonalEdgeStyle;rounded=0;orthogonalLoop=1;jettySize=auto;html=1;" parent="XhHmiUflHOxw2_ojajZN-1" source="XhHmiUflHOxw2_ojajZN-15" target="XhHmiUflHOxw2_ojajZN-20" edge="1">
          <mxGeometry relative="1" as="geometry">
            <mxPoint x="480" y="310" as="targetPoint" />
          </mxGeometry>
        </mxCell>
        <mxCell id="XhHmiUflHOxw2_ojajZN-15" value="success" style="rhombus;whiteSpace=wrap;html=1;" parent="XhHmiUflHOxw2_ojajZN-1" vertex="1">
          <mxGeometry x="440" y="160" width="80" height="80" as="geometry" />
        </mxCell>
        <mxCell id="XhHmiUflHOxw2_ojajZN-16" style="edgeStyle=orthogonalEdgeStyle;rounded=0;orthogonalLoop=1;jettySize=auto;html=1;" parent="XhHmiUflHOxw2_ojajZN-1" source="XhHmiUflHOxw2_ojajZN-17" target="XhHmiUflHOxw2_ojajZN-4" edge="1">
          <mxGeometry relative="1" as="geometry" />
        </mxCell>
        <mxCell id="XhHmiUflHOxw2_ojajZN-17" value="show molds" style="rounded=0;whiteSpace=wrap;html=1;" parent="XhHmiUflHOxw2_ojajZN-1" vertex="1">
          <mxGeometry x="220" y="170" width="120" height="60" as="geometry" />
        </mxCell>
        <mxCell id="XhHmiUflHOxw2_ojajZN-18" value="no" style="edgeStyle=orthogonalEdgeStyle;rounded=0;orthogonalLoop=1;jettySize=auto;html=1;" parent="XhHmiUflHOxw2_ojajZN-1" source="XhHmiUflHOxw2_ojajZN-20" target="XhHmiUflHOxw2_ojajZN-24" edge="1">
          <mxGeometry relative="1" as="geometry">
            <mxPoint x="320" y="350" as="targetPoint" />
          </mxGeometry>
        </mxCell>
        <mxCell id="XhHmiUflHOxw2_ojajZN-19" value="yes" style="edgeStyle=orthogonalEdgeStyle;rounded=0;orthogonalLoop=1;jettySize=auto;html=1;" parent="XhHmiUflHOxw2_ojajZN-1" source="XhHmiUflHOxw2_ojajZN-20" target="XhHmiUflHOxw2_ojajZN-22" edge="1">
          <mxGeometry relative="1" as="geometry">
            <mxPoint x="480" y="460" as="targetPoint" />
          </mxGeometry>
        </mxCell>
        <mxCell id="XhHmiUflHOxw2_ojajZN-20" value="&lt;font style=&quot;font-size: 10px;&quot;&gt;is unauthorize&lt;/font&gt;" style="rhombus;whiteSpace=wrap;html=1;" parent="XhHmiUflHOxw2_ojajZN-1" vertex="1">
          <mxGeometry x="440" y="310" width="80" height="80" as="geometry" />
        </mxCell>
        <mxCell id="XhHmiUflHOxw2_ojajZN-21" style="edgeStyle=orthogonalEdgeStyle;rounded=0;orthogonalLoop=1;jettySize=auto;html=1;" parent="XhHmiUflHOxw2_ojajZN-1" source="XhHmiUflHOxw2_ojajZN-22" target="XhHmiUflHOxw2_ojajZN-4" edge="1">
          <mxGeometry relative="1" as="geometry">
            <Array as="points">
              <mxPoint x="680" y="420" />
              <mxPoint x="80" y="420" />
            </Array>
          </mxGeometry>
        </mxCell>
        <mxCell id="XhHmiUflHOxw2_ojajZN-22" value="logout" style="shape=process;whiteSpace=wrap;html=1;backgroundOutline=1;" parent="XhHmiUflHOxw2_ojajZN-1" vertex="1">
          <mxGeometry x="620" y="320" width="120" height="60" as="geometry" />
        </mxCell>
        <mxCell id="XhHmiUflHOxw2_ojajZN-23" style="edgeStyle=orthogonalEdgeStyle;rounded=0;orthogonalLoop=1;jettySize=auto;html=1;" parent="XhHmiUflHOxw2_ojajZN-1" source="XhHmiUflHOxw2_ojajZN-24" target="XhHmiUflHOxw2_ojajZN-4" edge="1">
          <mxGeometry relative="1" as="geometry" />
        </mxCell>
        <mxCell id="XhHmiUflHOxw2_ojajZN-24" value="show error" style="rounded=0;whiteSpace=wrap;html=1;" parent="XhHmiUflHOxw2_ojajZN-1" vertex="1">
          <mxGeometry x="220" y="320" width="120" height="60" as="geometry" />
        </mxCell>
      </root>
    </mxGraphModel>
  </diagram>
  <diagram name="read mold" id="wGGgUZe2lC8epBErSkKW">
    <mxGraphModel dx="1042" dy="626" grid="1" gridSize="10" guides="1" tooltips="1" connect="1" arrows="1" fold="1" page="1" pageScale="1" pageWidth="827" pageHeight="1169" math="0" shadow="0">
      <root>
        <mxCell id="_BpClYvlnPE_yRXu2dc3-0" />
        <mxCell id="_BpClYvlnPE_yRXu2dc3-1" parent="_BpClYvlnPE_yRXu2dc3-0" />
        <mxCell id="_BpClYvlnPE_yRXu2dc3-2" value="" style="edgeStyle=orthogonalEdgeStyle;rounded=0;orthogonalLoop=1;jettySize=auto;html=1;" parent="_BpClYvlnPE_yRXu2dc3-1" source="_BpClYvlnPE_yRXu2dc3-3" target="_BpClYvlnPE_yRXu2dc3-6" edge="1">
          <mxGeometry relative="1" as="geometry" />
        </mxCell>
        <mxCell id="_BpClYvlnPE_yRXu2dc3-3" value="start" style="rounded=1;whiteSpace=wrap;html=1;arcSize=50;" parent="_BpClYvlnPE_yRXu2dc3-1" vertex="1">
          <mxGeometry x="20" y="20" width="120" height="60" as="geometry" />
        </mxCell>
        <mxCell id="_BpClYvlnPE_yRXu2dc3-4" value="end" style="rounded=1;whiteSpace=wrap;html=1;arcSize=50;" parent="_BpClYvlnPE_yRXu2dc3-1" vertex="1">
          <mxGeometry x="20" y="160" width="120" height="60" as="geometry" />
        </mxCell>
        <mxCell id="_BpClYvlnPE_yRXu2dc3-5" value="" style="edgeStyle=orthogonalEdgeStyle;rounded=0;orthogonalLoop=1;jettySize=auto;html=1;" parent="_BpClYvlnPE_yRXu2dc3-1" source="_BpClYvlnPE_yRXu2dc3-6" target="_BpClYvlnPE_yRXu2dc3-8" edge="1">
          <mxGeometry relative="1" as="geometry" />
        </mxCell>
        <mxCell id="_BpClYvlnPE_yRXu2dc3-6" value="check auth" style="shape=process;whiteSpace=wrap;html=1;backgroundOutline=1;" parent="_BpClYvlnPE_yRXu2dc3-1" vertex="1">
          <mxGeometry x="200" y="20" width="120" height="60" as="geometry" />
        </mxCell>
        <mxCell id="_BpClYvlnPE_yRXu2dc3-7" value="" style="edgeStyle=orthogonalEdgeStyle;rounded=0;orthogonalLoop=1;jettySize=auto;html=1;" parent="_BpClYvlnPE_yRXu2dc3-1" source="_BpClYvlnPE_yRXu2dc3-8" target="_BpClYvlnPE_yRXu2dc3-11" edge="1">
          <mxGeometry relative="1" as="geometry" />
        </mxCell>
        <mxCell id="_BpClYvlnPE_yRXu2dc3-8" value="use access token to get molds" style="whiteSpace=wrap;html=1;" parent="_BpClYvlnPE_yRXu2dc3-1" vertex="1">
          <mxGeometry x="400" y="20" width="120" height="60" as="geometry" />
        </mxCell>
        <mxCell id="_BpClYvlnPE_yRXu2dc3-9" value="no" style="edgeStyle=orthogonalEdgeStyle;rounded=0;orthogonalLoop=1;jettySize=auto;html=1;" parent="_BpClYvlnPE_yRXu2dc3-1" source="_BpClYvlnPE_yRXu2dc3-11" target="_BpClYvlnPE_yRXu2dc3-13" edge="1">
          <mxGeometry relative="1" as="geometry" />
        </mxCell>
        <mxCell id="_BpClYvlnPE_yRXu2dc3-10" value="yes" style="edgeStyle=orthogonalEdgeStyle;rounded=0;orthogonalLoop=1;jettySize=auto;html=1;" parent="_BpClYvlnPE_yRXu2dc3-1" source="_BpClYvlnPE_yRXu2dc3-11" target="_BpClYvlnPE_yRXu2dc3-15" edge="1">
          <mxGeometry relative="1" as="geometry" />
        </mxCell>
        <mxCell id="_BpClYvlnPE_yRXu2dc3-11" value="is success" style="rhombus;whiteSpace=wrap;html=1;" parent="_BpClYvlnPE_yRXu2dc3-1" vertex="1">
          <mxGeometry x="420" y="150" width="80" height="80" as="geometry" />
        </mxCell>
        <mxCell id="_BpClYvlnPE_yRXu2dc3-12" style="edgeStyle=orthogonalEdgeStyle;rounded=0;orthogonalLoop=1;jettySize=auto;html=1;" parent="_BpClYvlnPE_yRXu2dc3-1" source="_BpClYvlnPE_yRXu2dc3-13" target="_BpClYvlnPE_yRXu2dc3-4" edge="1">
          <mxGeometry relative="1" as="geometry">
            <Array as="points">
              <mxPoint x="620" y="260" />
              <mxPoint x="80" y="260" />
            </Array>
          </mxGeometry>
        </mxCell>
        <mxCell id="_BpClYvlnPE_yRXu2dc3-13" value="show error" style="whiteSpace=wrap;html=1;" parent="_BpClYvlnPE_yRXu2dc3-1" vertex="1">
          <mxGeometry x="560" y="160" width="120" height="60" as="geometry" />
        </mxCell>
        <mxCell id="_BpClYvlnPE_yRXu2dc3-14" style="edgeStyle=orthogonalEdgeStyle;rounded=0;orthogonalLoop=1;jettySize=auto;html=1;" parent="_BpClYvlnPE_yRXu2dc3-1" source="_BpClYvlnPE_yRXu2dc3-15" target="_BpClYvlnPE_yRXu2dc3-4" edge="1">
          <mxGeometry relative="1" as="geometry" />
        </mxCell>
        <mxCell id="_BpClYvlnPE_yRXu2dc3-15" value="show molds" style="whiteSpace=wrap;html=1;" parent="_BpClYvlnPE_yRXu2dc3-1" vertex="1">
          <mxGeometry x="200" y="160" width="120" height="60" as="geometry" />
        </mxCell>
      </root>
    </mxGraphModel>
  </diagram>
  <diagram name="update mold" id="R51m7mTaeBvdWb_c1dK4">
    <mxGraphModel dx="1042" dy="626" grid="1" gridSize="10" guides="1" tooltips="1" connect="1" arrows="1" fold="1" page="1" pageScale="1" pageWidth="827" pageHeight="1169" math="0" shadow="0">
      <root>
        <mxCell id="AvFdiS71eTT8Rk40K7gw-0" />
        <mxCell id="AvFdiS71eTT8Rk40K7gw-1" parent="AvFdiS71eTT8Rk40K7gw-0" />
        <mxCell id="AvFdiS71eTT8Rk40K7gw-2" value="" style="edgeStyle=orthogonalEdgeStyle;rounded=0;orthogonalLoop=1;jettySize=auto;html=1;" parent="AvFdiS71eTT8Rk40K7gw-1" source="AvFdiS71eTT8Rk40K7gw-3" target="AvFdiS71eTT8Rk40K7gw-6" edge="1">
          <mxGeometry relative="1" as="geometry" />
        </mxCell>
        <mxCell id="AvFdiS71eTT8Rk40K7gw-3" value="start" style="rounded=1;whiteSpace=wrap;html=1;arcSize=50;" parent="AvFdiS71eTT8Rk40K7gw-1" vertex="1">
          <mxGeometry x="20" y="30" width="120" height="60" as="geometry" />
        </mxCell>
        <mxCell id="AvFdiS71eTT8Rk40K7gw-4" value="end" style="rounded=1;whiteSpace=wrap;html=1;arcSize=50;" parent="AvFdiS71eTT8Rk40K7gw-1" vertex="1">
          <mxGeometry x="20" y="170" width="120" height="60" as="geometry" />
        </mxCell>
        <mxCell id="AvFdiS71eTT8Rk40K7gw-5" value="" style="edgeStyle=orthogonalEdgeStyle;rounded=0;orthogonalLoop=1;jettySize=auto;html=1;" parent="AvFdiS71eTT8Rk40K7gw-1" source="AvFdiS71eTT8Rk40K7gw-6" target="AvFdiS71eTT8Rk40K7gw-8" edge="1">
          <mxGeometry relative="1" as="geometry" />
        </mxCell>
        <mxCell id="AvFdiS71eTT8Rk40K7gw-6" value="press update mold button" style="whiteSpace=wrap;html=1;rounded=0;arcSize=50;" parent="AvFdiS71eTT8Rk40K7gw-1" vertex="1">
          <mxGeometry x="220" y="30" width="120" height="60" as="geometry" />
        </mxCell>
        <mxCell id="AvFdiS71eTT8Rk40K7gw-7" value="" style="edgeStyle=orthogonalEdgeStyle;rounded=0;orthogonalLoop=1;jettySize=auto;html=1;" parent="AvFdiS71eTT8Rk40K7gw-1" source="AvFdiS71eTT8Rk40K7gw-8" target="AvFdiS71eTT8Rk40K7gw-10" edge="1">
          <mxGeometry relative="1" as="geometry" />
        </mxCell>
        <mxCell id="AvFdiS71eTT8Rk40K7gw-8" value="update mold detail" style="whiteSpace=wrap;html=1;rounded=0;arcSize=50;" parent="AvFdiS71eTT8Rk40K7gw-1" vertex="1">
          <mxGeometry x="420" y="30" width="120" height="60" as="geometry" />
        </mxCell>
        <mxCell id="AvFdiS71eTT8Rk40K7gw-9" value="" style="edgeStyle=orthogonalEdgeStyle;rounded=0;orthogonalLoop=1;jettySize=auto;html=1;" parent="AvFdiS71eTT8Rk40K7gw-1" source="AvFdiS71eTT8Rk40K7gw-10" target="AvFdiS71eTT8Rk40K7gw-12" edge="1">
          <mxGeometry relative="1" as="geometry" />
        </mxCell>
        <mxCell id="AvFdiS71eTT8Rk40K7gw-10" value="check auth" style="shape=process;whiteSpace=wrap;html=1;backgroundOutline=1;" parent="AvFdiS71eTT8Rk40K7gw-1" vertex="1">
          <mxGeometry x="620" y="30" width="120" height="60" as="geometry" />
        </mxCell>
        <mxCell id="AvFdiS71eTT8Rk40K7gw-11" value="" style="edgeStyle=orthogonalEdgeStyle;rounded=0;orthogonalLoop=1;jettySize=auto;html=1;" parent="AvFdiS71eTT8Rk40K7gw-1" source="AvFdiS71eTT8Rk40K7gw-12" target="AvFdiS71eTT8Rk40K7gw-15" edge="1">
          <mxGeometry relative="1" as="geometry" />
        </mxCell>
        <mxCell id="AvFdiS71eTT8Rk40K7gw-12" value="use access token to update mold" style="whiteSpace=wrap;html=1;" parent="AvFdiS71eTT8Rk40K7gw-1" vertex="1">
          <mxGeometry x="620" y="170" width="120" height="60" as="geometry" />
        </mxCell>
        <mxCell id="AvFdiS71eTT8Rk40K7gw-13" value="yes" style="edgeStyle=orthogonalEdgeStyle;rounded=0;orthogonalLoop=1;jettySize=auto;html=1;" parent="AvFdiS71eTT8Rk40K7gw-1" source="AvFdiS71eTT8Rk40K7gw-15" target="AvFdiS71eTT8Rk40K7gw-17" edge="1">
          <mxGeometry relative="1" as="geometry" />
        </mxCell>
        <mxCell id="AvFdiS71eTT8Rk40K7gw-14" value="no" style="edgeStyle=orthogonalEdgeStyle;rounded=0;orthogonalLoop=1;jettySize=auto;html=1;" parent="AvFdiS71eTT8Rk40K7gw-1" source="AvFdiS71eTT8Rk40K7gw-15" target="AvFdiS71eTT8Rk40K7gw-20" edge="1">
          <mxGeometry relative="1" as="geometry">
            <mxPoint x="480" y="310" as="targetPoint" />
          </mxGeometry>
        </mxCell>
        <mxCell id="AvFdiS71eTT8Rk40K7gw-15" value="success" style="rhombus;whiteSpace=wrap;html=1;" parent="AvFdiS71eTT8Rk40K7gw-1" vertex="1">
          <mxGeometry x="440" y="160" width="80" height="80" as="geometry" />
        </mxCell>
        <mxCell id="AvFdiS71eTT8Rk40K7gw-16" style="edgeStyle=orthogonalEdgeStyle;rounded=0;orthogonalLoop=1;jettySize=auto;html=1;" parent="AvFdiS71eTT8Rk40K7gw-1" source="AvFdiS71eTT8Rk40K7gw-17" target="AvFdiS71eTT8Rk40K7gw-4" edge="1">
          <mxGeometry relative="1" as="geometry" />
        </mxCell>
        <mxCell id="AvFdiS71eTT8Rk40K7gw-17" value="show molds" style="rounded=0;whiteSpace=wrap;html=1;" parent="AvFdiS71eTT8Rk40K7gw-1" vertex="1">
          <mxGeometry x="220" y="170" width="120" height="60" as="geometry" />
        </mxCell>
        <mxCell id="AvFdiS71eTT8Rk40K7gw-18" value="no" style="edgeStyle=orthogonalEdgeStyle;rounded=0;orthogonalLoop=1;jettySize=auto;html=1;" parent="AvFdiS71eTT8Rk40K7gw-1" source="AvFdiS71eTT8Rk40K7gw-20" target="AvFdiS71eTT8Rk40K7gw-24" edge="1">
          <mxGeometry relative="1" as="geometry">
            <mxPoint x="320" y="350" as="targetPoint" />
          </mxGeometry>
        </mxCell>
        <mxCell id="AvFdiS71eTT8Rk40K7gw-19" value="yes" style="edgeStyle=orthogonalEdgeStyle;rounded=0;orthogonalLoop=1;jettySize=auto;html=1;" parent="AvFdiS71eTT8Rk40K7gw-1" source="AvFdiS71eTT8Rk40K7gw-20" target="AvFdiS71eTT8Rk40K7gw-22" edge="1">
          <mxGeometry relative="1" as="geometry">
            <mxPoint x="480" y="460" as="targetPoint" />
          </mxGeometry>
        </mxCell>
        <mxCell id="AvFdiS71eTT8Rk40K7gw-20" value="&lt;font style=&quot;font-size: 10px;&quot;&gt;is unauthorize&lt;/font&gt;" style="rhombus;whiteSpace=wrap;html=1;" parent="AvFdiS71eTT8Rk40K7gw-1" vertex="1">
          <mxGeometry x="440" y="310" width="80" height="80" as="geometry" />
        </mxCell>
        <mxCell id="AvFdiS71eTT8Rk40K7gw-21" style="edgeStyle=orthogonalEdgeStyle;rounded=0;orthogonalLoop=1;jettySize=auto;html=1;" parent="AvFdiS71eTT8Rk40K7gw-1" source="AvFdiS71eTT8Rk40K7gw-22" target="AvFdiS71eTT8Rk40K7gw-4" edge="1">
          <mxGeometry relative="1" as="geometry">
            <Array as="points">
              <mxPoint x="680" y="420" />
              <mxPoint x="80" y="420" />
            </Array>
          </mxGeometry>
        </mxCell>
        <mxCell id="AvFdiS71eTT8Rk40K7gw-22" value="logout" style="shape=process;whiteSpace=wrap;html=1;backgroundOutline=1;" parent="AvFdiS71eTT8Rk40K7gw-1" vertex="1">
          <mxGeometry x="620" y="320" width="120" height="60" as="geometry" />
        </mxCell>
        <mxCell id="AvFdiS71eTT8Rk40K7gw-23" style="edgeStyle=orthogonalEdgeStyle;rounded=0;orthogonalLoop=1;jettySize=auto;html=1;" parent="AvFdiS71eTT8Rk40K7gw-1" source="AvFdiS71eTT8Rk40K7gw-24" target="AvFdiS71eTT8Rk40K7gw-4" edge="1">
          <mxGeometry relative="1" as="geometry" />
        </mxCell>
        <mxCell id="AvFdiS71eTT8Rk40K7gw-24" value="show error" style="rounded=0;whiteSpace=wrap;html=1;" parent="AvFdiS71eTT8Rk40K7gw-1" vertex="1">
          <mxGeometry x="220" y="320" width="120" height="60" as="geometry" />
        </mxCell>
      </root>
    </mxGraphModel>
  </diagram>
  <diagram name="delete mold" id="BO1FANsMqSMiUf1Cz9Kc">
    <mxGraphModel dx="1042" dy="626" grid="1" gridSize="10" guides="1" tooltips="1" connect="1" arrows="1" fold="1" page="1" pageScale="1" pageWidth="827" pageHeight="1169" math="0" shadow="0">
      <root>
        <mxCell id="RvTqQkzqZXYG2zMOyX2--0" />
        <mxCell id="RvTqQkzqZXYG2zMOyX2--1" parent="RvTqQkzqZXYG2zMOyX2--0" />
        <mxCell id="RvTqQkzqZXYG2zMOyX2--2" value="" style="edgeStyle=orthogonalEdgeStyle;rounded=0;orthogonalLoop=1;jettySize=auto;html=1;" parent="RvTqQkzqZXYG2zMOyX2--1" source="RvTqQkzqZXYG2zMOyX2--3" target="RvTqQkzqZXYG2zMOyX2--6" edge="1">
          <mxGeometry relative="1" as="geometry" />
        </mxCell>
        <mxCell id="RvTqQkzqZXYG2zMOyX2--3" value="start" style="rounded=1;whiteSpace=wrap;html=1;arcSize=50;" parent="RvTqQkzqZXYG2zMOyX2--1" vertex="1">
          <mxGeometry x="20" y="30" width="120" height="60" as="geometry" />
        </mxCell>
        <mxCell id="RvTqQkzqZXYG2zMOyX2--4" value="end" style="rounded=1;whiteSpace=wrap;html=1;arcSize=50;" parent="RvTqQkzqZXYG2zMOyX2--1" vertex="1">
          <mxGeometry x="20" y="170" width="120" height="60" as="geometry" />
        </mxCell>
        <mxCell id="RvTqQkzqZXYG2zMOyX2--5" value="" style="edgeStyle=orthogonalEdgeStyle;rounded=0;orthogonalLoop=1;jettySize=auto;html=1;" parent="RvTqQkzqZXYG2zMOyX2--1" source="RvTqQkzqZXYG2zMOyX2--6" target="RvTqQkzqZXYG2zMOyX2--8" edge="1">
          <mxGeometry relative="1" as="geometry" />
        </mxCell>
        <mxCell id="RvTqQkzqZXYG2zMOyX2--6" value="press update mold button" style="whiteSpace=wrap;html=1;rounded=0;arcSize=50;" parent="RvTqQkzqZXYG2zMOyX2--1" vertex="1">
          <mxGeometry x="220" y="30" width="120" height="60" as="geometry" />
        </mxCell>
        <mxCell id="RvTqQkzqZXYG2zMOyX2--7" value="" style="edgeStyle=orthogonalEdgeStyle;rounded=0;orthogonalLoop=1;jettySize=auto;html=1;" parent="RvTqQkzqZXYG2zMOyX2--1" source="RvTqQkzqZXYG2zMOyX2--8" target="RvTqQkzqZXYG2zMOyX2--10" edge="1">
          <mxGeometry relative="1" as="geometry" />
        </mxCell>
        <mxCell id="RvTqQkzqZXYG2zMOyX2--8" value="press delete mold button" style="whiteSpace=wrap;html=1;rounded=0;arcSize=50;" parent="RvTqQkzqZXYG2zMOyX2--1" vertex="1">
          <mxGeometry x="420" y="30" width="120" height="60" as="geometry" />
        </mxCell>
        <mxCell id="RvTqQkzqZXYG2zMOyX2--9" value="" style="edgeStyle=orthogonalEdgeStyle;rounded=0;orthogonalLoop=1;jettySize=auto;html=1;" parent="RvTqQkzqZXYG2zMOyX2--1" source="RvTqQkzqZXYG2zMOyX2--10" target="RvTqQkzqZXYG2zMOyX2--12" edge="1">
          <mxGeometry relative="1" as="geometry" />
        </mxCell>
        <mxCell id="RvTqQkzqZXYG2zMOyX2--10" value="check auth" style="shape=process;whiteSpace=wrap;html=1;backgroundOutline=1;" parent="RvTqQkzqZXYG2zMOyX2--1" vertex="1">
          <mxGeometry x="620" y="30" width="120" height="60" as="geometry" />
        </mxCell>
        <mxCell id="RvTqQkzqZXYG2zMOyX2--11" value="" style="edgeStyle=orthogonalEdgeStyle;rounded=0;orthogonalLoop=1;jettySize=auto;html=1;" parent="RvTqQkzqZXYG2zMOyX2--1" source="RvTqQkzqZXYG2zMOyX2--12" target="RvTqQkzqZXYG2zMOyX2--15" edge="1">
          <mxGeometry relative="1" as="geometry" />
        </mxCell>
        <mxCell id="RvTqQkzqZXYG2zMOyX2--12" value="use access token to delete mold" style="whiteSpace=wrap;html=1;" parent="RvTqQkzqZXYG2zMOyX2--1" vertex="1">
          <mxGeometry x="620" y="170" width="120" height="60" as="geometry" />
        </mxCell>
        <mxCell id="RvTqQkzqZXYG2zMOyX2--13" value="yes" style="edgeStyle=orthogonalEdgeStyle;rounded=0;orthogonalLoop=1;jettySize=auto;html=1;" parent="RvTqQkzqZXYG2zMOyX2--1" source="RvTqQkzqZXYG2zMOyX2--15" target="RvTqQkzqZXYG2zMOyX2--17" edge="1">
          <mxGeometry relative="1" as="geometry" />
        </mxCell>
        <mxCell id="RvTqQkzqZXYG2zMOyX2--14" value="no" style="edgeStyle=orthogonalEdgeStyle;rounded=0;orthogonalLoop=1;jettySize=auto;html=1;" parent="RvTqQkzqZXYG2zMOyX2--1" source="RvTqQkzqZXYG2zMOyX2--15" target="RvTqQkzqZXYG2zMOyX2--20" edge="1">
          <mxGeometry relative="1" as="geometry">
            <mxPoint x="480" y="310" as="targetPoint" />
          </mxGeometry>
        </mxCell>
        <mxCell id="RvTqQkzqZXYG2zMOyX2--15" value="success" style="rhombus;whiteSpace=wrap;html=1;" parent="RvTqQkzqZXYG2zMOyX2--1" vertex="1">
          <mxGeometry x="440" y="160" width="80" height="80" as="geometry" />
        </mxCell>
        <mxCell id="RvTqQkzqZXYG2zMOyX2--16" style="edgeStyle=orthogonalEdgeStyle;rounded=0;orthogonalLoop=1;jettySize=auto;html=1;" parent="RvTqQkzqZXYG2zMOyX2--1" source="RvTqQkzqZXYG2zMOyX2--17" target="RvTqQkzqZXYG2zMOyX2--4" edge="1">
          <mxGeometry relative="1" as="geometry" />
        </mxCell>
        <mxCell id="RvTqQkzqZXYG2zMOyX2--17" value="show molds" style="rounded=0;whiteSpace=wrap;html=1;" parent="RvTqQkzqZXYG2zMOyX2--1" vertex="1">
          <mxGeometry x="220" y="170" width="120" height="60" as="geometry" />
        </mxCell>
        <mxCell id="RvTqQkzqZXYG2zMOyX2--18" value="no" style="edgeStyle=orthogonalEdgeStyle;rounded=0;orthogonalLoop=1;jettySize=auto;html=1;" parent="RvTqQkzqZXYG2zMOyX2--1" source="RvTqQkzqZXYG2zMOyX2--20" target="RvTqQkzqZXYG2zMOyX2--24" edge="1">
          <mxGeometry relative="1" as="geometry">
            <mxPoint x="320" y="350" as="targetPoint" />
          </mxGeometry>
        </mxCell>
        <mxCell id="RvTqQkzqZXYG2zMOyX2--19" value="yes" style="edgeStyle=orthogonalEdgeStyle;rounded=0;orthogonalLoop=1;jettySize=auto;html=1;" parent="RvTqQkzqZXYG2zMOyX2--1" source="RvTqQkzqZXYG2zMOyX2--20" target="RvTqQkzqZXYG2zMOyX2--22" edge="1">
          <mxGeometry relative="1" as="geometry">
            <mxPoint x="480" y="460" as="targetPoint" />
          </mxGeometry>
        </mxCell>
        <mxCell id="RvTqQkzqZXYG2zMOyX2--20" value="&lt;font style=&quot;font-size: 10px;&quot;&gt;is unauthorize&lt;/font&gt;" style="rhombus;whiteSpace=wrap;html=1;" parent="RvTqQkzqZXYG2zMOyX2--1" vertex="1">
          <mxGeometry x="440" y="310" width="80" height="80" as="geometry" />
        </mxCell>
        <mxCell id="RvTqQkzqZXYG2zMOyX2--21" style="edgeStyle=orthogonalEdgeStyle;rounded=0;orthogonalLoop=1;jettySize=auto;html=1;" parent="RvTqQkzqZXYG2zMOyX2--1" source="RvTqQkzqZXYG2zMOyX2--22" target="RvTqQkzqZXYG2zMOyX2--4" edge="1">
          <mxGeometry relative="1" as="geometry">
            <Array as="points">
              <mxPoint x="680" y="420" />
              <mxPoint x="80" y="420" />
            </Array>
          </mxGeometry>
        </mxCell>
        <mxCell id="RvTqQkzqZXYG2zMOyX2--22" value="logout" style="shape=process;whiteSpace=wrap;html=1;backgroundOutline=1;" parent="RvTqQkzqZXYG2zMOyX2--1" vertex="1">
          <mxGeometry x="620" y="320" width="120" height="60" as="geometry" />
        </mxCell>
        <mxCell id="RvTqQkzqZXYG2zMOyX2--23" style="edgeStyle=orthogonalEdgeStyle;rounded=0;orthogonalLoop=1;jettySize=auto;html=1;" parent="RvTqQkzqZXYG2zMOyX2--1" source="RvTqQkzqZXYG2zMOyX2--24" target="RvTqQkzqZXYG2zMOyX2--4" edge="1">
          <mxGeometry relative="1" as="geometry" />
        </mxCell>
        <mxCell id="RvTqQkzqZXYG2zMOyX2--24" value="show error" style="rounded=0;whiteSpace=wrap;html=1;" parent="RvTqQkzqZXYG2zMOyX2--1" vertex="1">
          <mxGeometry x="220" y="320" width="120" height="60" as="geometry" />
        </mxCell>
      </root>
    </mxGraphModel>
  </diagram>
</mxfile>
